Coordinates
version=1
nRows=4
nColumns=107
inDegrees=yes

Units are S.I. units (second, meters, Newtons, ...)
If the header above contains a line with 'inDegrees', this indicates whether rotational values are in degrees (yes) or radians (no).

endheader
time	sternoclavicular_r2	sternoclavicular_r3	unrotscap_r3	unrotscap_r2	acromioclavicular_r2	acromioclavicular_r3	acromioclavicular_r1	unrothum_r1	unrothum_r3	unrothum_r2	elv_angle	shoulder_elv	shoulder1_r2	shoulder_rot	elbow_flexion	pro_sup	deviation	flexion	proximal_distal_r1	proximal_distal_r3	cmc_flexion	cmc_abduction	mp_flexion	ip_flexion	mcp2_flexion	mcp2_abduction	pm2_flexion	md2_flexion	mcp3_flexion	mcp3_abduction	pm3_flexion	md3_flexion	mcp4_flexion	mcp4_abduction	pm4_flexion	md4_flexion	mcp5_flexion	mcp5_abduction	pm5_flexion	md5_flexion	bicpt_tx	bicpt_ty	bicpt_tz	bicpt2_tx	bicpt2_ty	bicpt2_tz	ptpt_tx	ptpt_ty	ptpt_tz	FCUpt_tx	FCUpt_ty	FCUpt_tz	EDCpt_tx	EDCpt_ty	EDCpt_tz	APLpt_tx	APLpt_ty	APLpt_tz	FPLpt_tx	FPLpt_ty	FPLpt_tz	FPLpt2_tx	FPLpt2_ty	FPLpt2_tz	PEC1pt2_tx	PEC1pt2_ty	PEC1pt2_tz	PEC1pt3_tx	PEC1pt3_ty	PEC1pt3_tz	PEC2pt2_tx	PEC2pt2_ty	PEC2pt2_tz	PEC2pt3_tx	PEC2pt3_ty	PEC2pt3_tz	PEC3pt2_tx	PEC3pt2_ty	PEC3pt2_tz	PEC3pt3_tx	PEC3pt3_ty	PEC3pt3_tz	DELT2pt2a_tx	DELT2pt2a_ty	DELT2pt2a_tz	DELT2pt2_tx	DELT2pt2_ty	DELT2pt2_tz	LAT1pt2_tx	LAT1pt2_ty	LAT1pt2_tz	LAT1pt3_tx	LAT1pt3_ty	LAT1pt3_tz	LAT2pt2_tx	LAT2pt2_ty	LAT2pt2_tz	LAT2pt3_tx	LAT2pt3_ty	LAT2pt3_tz	LAT3pt2_tx	LAT3pt2_ty	LAT3pt2_tz	LAT3pt3_tx	LAT3pt3_ty	LAT3pt3_tz
      0.00000000	     -0.31005061	      0.13132280	     -0.13132280	      0.31005061	     -0.06277894	      0.50735732	      0.22805362	     -0.22805362	     -0.50735732	      0.06277894	    102.20416979	     73.40723783	     -1.78379927	    -41.09139375	     32.19737603	     86.25761272	      0.37563728	     -0.38824523	      0.39429858	     -0.19412261	     42.73330873	    -13.92058085	     15.41818579	      7.48024574	     94.42243325	      9.51772532	     80.52732969	     79.81035755	     93.38244782	     -1.70222324	     82.63716731	     48.25632963	     86.03249194	    -12.81014573	     97.39574908	     46.83133931	     83.60105011	    -14.12335621	    109.08950306	      5.39642255	      0.00096499	     -0.03129031	     -0.00489441	      0.01421327	     -0.01894658	     -0.00103192	      0.00117654	     -0.06902119	     -0.00699851	      0.01276760	     -0.18222901	      0.00009089	     -0.01035089	      0.00359215	     -0.00076549	      0.00027100	      0.00010840	      0.00054201	      0.00034689	      0.00104066	      0.00058537	     -0.00000588	     -0.00005381	     -0.00006458	      0.00240613	      0.00844184	      0.00587258	     -0.00787089	      0.01900433	     -0.01802557	      0.00240613	      0.00844184	      0.00587258	      0.00053016	      0.01761775	     -0.00925748	      0.00384207	      0.00469440	      0.01570306	      0.00000000	      0.00720305	      0.00000000	     -0.00689213	     -0.03185061	     -0.00593581	      0.02297268	     -0.00115071	     -0.01356421	     -0.00085642	      0.01435521	     -0.00587258	      0.00236535	      0.02071717	     -0.01712837	     -0.00575024	      0.01243846	     -0.00526086	     -0.01198986	      0.02626350	     -0.02940370	     -0.02251157	      0.01390661	     -0.00705526	     -0.01492615	      0.03034168	     -0.03674443
      0.03333333	     -0.30963092	      0.13114504	     -0.13114504	      0.30963092	     -0.06269396	      0.50667056	      0.22774493	     -0.22774493	     -0.50667056	      0.06269396	    102.14076329	     73.30787267	     -1.78269262	    -41.21610096	     32.33735917	     86.15757677	      0.37596243	     -0.38824127	      0.39453982	     -0.19412064	     42.71451029	    -13.96192518	     15.41193770	      7.47674277	     94.37687996	      9.53510603	     80.52183343	     79.81343804	     93.42773030	     -1.69095492	     82.68260379	     48.27288932	     86.13754896	    -12.86038769	     97.42175052	     46.81455518	     83.64390812	    -14.11653447	    109.06657241	      5.38594037	      0.00096962	     -0.03130636	     -0.00489700	      0.01422359	     -0.01898460	     -0.00104904	      0.00118393	     -0.06901641	     -0.00699046	      0.01275611	     -0.18223240	      0.00008815	     -0.01033889	      0.00358666	     -0.00076228	      0.00027099	      0.00010840	      0.00054199	      0.00034687	      0.00104062	      0.00058535	     -0.00000592	     -0.00005424	     -0.00006508	      0.00240287	      0.00843041	      0.00586463	     -0.00786024	      0.01897861	     -0.01800117	      0.00240287	      0.00843041	      0.00586463	      0.00052945	      0.01759390	     -0.00924495	      0.00383821	      0.00468805	      0.01569319	      0.00000000	      0.00718344	      0.00000000	     -0.00688280	     -0.03180750	     -0.00591952	      0.02300877	     -0.00115529	     -0.01363938	     -0.00085526	      0.01433577	     -0.00586463	      0.00236214	      0.02068913	     -0.01710518	     -0.00574245	      0.01242162	     -0.00525374	     -0.01197363	      0.02622795	     -0.02936390	     -0.02248110	      0.01388778	     -0.00704571	     -0.01490595	      0.03030061	     -0.03669469
      0.06666667	     -0.30978736	      0.13121130	     -0.13121130	      0.30978736	     -0.06272564	      0.50692655	      0.22785999	     -0.22785999	     -0.50692655	      0.06272564	    102.28283747	     73.34491096	     -1.78517228	    -41.67087677	     32.11303513	     86.31316813	      0.35823094	     -0.42622675	      0.38113149	     -0.21311337	     42.68650583	    -14.41060232	     15.49661035	      7.37820429	     93.63626620	     10.07008147	     80.54799134	     79.05433567	     94.18919483	     -1.46338692	     83.13319895	     51.50848273	     87.37041229	    -13.18818087	    100.84920949	     34.99299478	     86.13902394	    -14.11712269	    105.11337859	      5.39078427	      0.00096220	     -0.03128064	     -0.00489286	      0.01420742	     -0.01892366	     -0.00102234	      0.00117243	     -0.06902384	     -0.00700299	      0.01277399	     -0.18222712	      0.00009246	     -0.01035756	      0.00359521	     -0.00076730	      0.00028396	      0.00011358	      0.00056792	      0.00036347	      0.00109040	      0.00061335	     -0.00000598	     -0.00005486	     -0.00006584	      0.00240409	      0.00843467	      0.00586760	     -0.00786421	      0.01898820	     -0.01801027	      0.00240409	      0.00843467	      0.00586760	      0.00052971	      0.01760279	     -0.00924962	      0.00383965	      0.00469041	      0.01569687	      0.00000000	      0.00719075	      0.00000000	     -0.00688628	     -0.03182357	     -0.00592559	      0.02314081	     -0.00117197	     -0.01391323	     -0.00085569	      0.01434302	     -0.00586760	      0.00236334	      0.02069958	     -0.01711383	     -0.00574536	      0.01242790	     -0.00525639	     -0.01197968	      0.02624120	     -0.02937874	     -0.02249246	      0.01389480	     -0.00704927	     -0.01491348	      0.03031592	     -0.03671323
      0.10000000	     -0.31006321	      0.13132814	     -0.13132814	      0.31006321	     -0.06278149	      0.50737794	      0.22806289	     -0.22806289	     -0.50737794	      0.06278149	    102.17722253	     73.41022047	     -1.78332895	    -41.32032357	     32.08596925	     86.22091042	      0.36029478	     -0.42133313	      0.38271899	     -0.21066656	     42.71053624	    -14.64793797	     15.59271292	      7.49211203	     93.37326022	     10.18403963	     80.60100681	     78.45623488	     94.53723610	     -1.42558872	     83.26336981	     52.60533167	     87.91188201	    -13.27654051	     99.85040958	     37.09289996	     86.93851839	    -14.11866279	    103.66813482	      5.38102608	      0.00096130	     -0.03127754	     -0.00489236	      0.01421702	     -0.01891631	     -0.00103818	      0.00117925	     -0.06901943	     -0.00699556	      0.01276339	     -0.18223025	      0.00008990	     -0.01034649	      0.00359014	     -0.00076432	      0.00028242	      0.00011297	      0.00056484	      0.00036150	      0.00108449	      0.00061002	     -0.00000593	     -0.00005432	     -0.00006519	      0.00240623	      0.00844218	      0.00587282	     -0.00787121	      0.01900511	     -0.01802630	      0.00240623	      0.00844218	      0.00587282	      0.00053019	      0.01761847	     -0.00925785	      0.00384219	      0.00469459	      0.01570336	      0.00000000	      0.00720364	      0.00000000	     -0.00689241	     -0.03185191	     -0.00593630	      0.02303931	     -0.00115911	     -0.01370197	     -0.00085645	      0.01435579	     -0.00587282	      0.00236544	      0.02071801	     -0.01712907	     -0.00575047	      0.01243896	     -0.00526107	     -0.01199035	      0.02626457	     -0.02940490	     -0.02251249	      0.01390717	     -0.00705554	     -0.01492676	      0.03034292	     -0.03674592
